<svg xmlns="http://www.w3.org/2000/svg" viewBox="0 0 128 128">
  <defs>
    <clipPath id="box"><rect x="12" y="34" width="70" height="58" rx="6"/></clipPath>
  </defs>

  <!-- Trailer = Argentine flag -->
  <g clip-path="url(#box)">
    <rect x="12" y="34" width="70" height="20" fill="#74ACDF"/>
    <rect x="12" y="54" width="70" height="18" fill="#FFFFFF"/>
    <rect x="12" y="72" width="70" height="20" fill="#74ACDF"/>
    <circle cx="47" cy="63" r="6.6" fill="#F6B40E"/>
    <line x1="54.8" y1="63.0" x2="59.0" y2="63.0" stroke="#F6B40E" stroke-width="1.7" stroke-linecap="round"/>
    <line x1="53.8" y1="66.9" x2="57.4" y2="69.0" stroke="#F6B40E" stroke-width="1.7" stroke-linecap="round"/>
    <line x1="50.9" y1="69.8" x2="53.0" y2="73.4" stroke="#F6B40E" stroke-width="1.7" stroke-linecap="round"/>
    <line x1="47.0" y1="70.8" x2="47.0" y2="75.0" stroke="#F6B40E" stroke-width="1.7" stroke-linecap="round"/>
    <line x1="43.1" y1="69.8" x2="41.0" y2="73.4" stroke="#F6B40E" stroke-width="1.7" stroke-linecap="round"/>
    <line x1="40.2" y1="66.9" x2="36.6" y2="69.0" stroke="#F6B40E" stroke-width="1.7" stroke-linecap="round"/>
    <line x1="39.2" y1="63.0" x2="35.0" y2="63.0" stroke="#F6B40E" stroke-width="1.7" stroke-linecap="round"/>
    <line x1="40.2" y1="59.1" x2="36.6" y2="57.0" stroke="#F6B40E" stroke-width="1.7" stroke-linecap="round"/>
    <line x1="43.1" y1="56.2" x2="41.0" y2="52.6" stroke="#F6B40E" stroke-width="1.7" stroke-linecap="round"/>
    <line x1="47.0" y1="55.2" x2="47.0" y2="51.0" stroke="#F6B40E" stroke-width="1.7" stroke-linecap="round"/>
    <line x1="50.9" y1="56.2" x2="53.0" y2="52.6" stroke="#F6B40E" stroke-width="1.7" stroke-linecap="round"/>
    <line x1="53.8" y1="59.1" x2="57.4" y2="57.0" stroke="#F6B40E" stroke-width="1.7" stroke-linecap="round"/>
  </g>
  <rect x="12" y="34" width="70" height="58" rx="6" fill="none" stroke="#37474F" stroke-width="2.6"/>

  <!-- Cab -->
  <path d="M82,92 V58 H92 L102,45 H113 a4,4 0 0 1 4,4 V92 Z" fill="#455A64"/>
  <path d="M94,58 L101,48 H112 q2,0 2,2 V58 Z" fill="#BBDEFB"/>

  <!-- Wheels -->
  <circle cx="34" cy="97" r="12" fill="#263238"/><circle cx="34" cy="97" r="5" fill="#90A4AE"/>
  <circle cx="100" cy="97" r="12" fill="#263238"/><circle cx="100" cy="97" r="5" fill="#90A4AE"/>
</svg>